<svg width="120" height="120" viewBox="0 0 120 120" fill="none" xmlns="http://www.w3.org/2000/svg">
  <!-- Regulatory Strategy Icon - Document with checkmarks and path -->
  <rect width="120" height="120" rx="16" fill="#F7FAFC"/>

  <!-- Document base -->
  <rect x="30" y="20" width="50" height="65" rx="4" stroke="#1B365D" stroke-width="2.5" fill="white"/>

  <!-- Document fold -->
  <path d="M65 20 L80 35 L65 35 Z" fill="#E2E8F0" stroke="#1B365D" stroke-width="2"/>

  <!-- Checkmarks representing approvals -->
  <g stroke="#38A169" stroke-width="2.5" stroke-linecap="round" stroke-linejoin="round">
    <path d="M38 40 L43 45 L53 35"/>
    <path d="M38 55 L43 60 L53 50"/>
    <path d="M38 70 L43 75 L53 65"/>
  </g>

  <!-- Lines representing text -->
  <g stroke="#CBD5E0" stroke-width="2" stroke-linecap="round">
    <line x1="58" y1="42" x2="72" y2="42"/>
    <line x1="58" y1="57" x2="72" y2="57"/>
    <line x1="58" y1="72" x2="72" y2="72"/>
  </g>

  <!-- Arrow indicating path/strategy -->
  <g stroke="#4A90A4" stroke-width="2.5" stroke-linecap="round" stroke-linejoin="round">
    <path d="M85 50 Q95 60 85 75 Q80 82 88 90"/>
    <path d="M83 85 L88 90 L93 85"/>
  </g>
</svg>
